# 3ds Max Wavefront OBJ Exporter v0.97b - (c)2007 guruware
# File Created: 29.03.2017 16:22:55

mtllib Assets\\Graphics\\Models\\Casa.mtl

#
# object Box001
#

v  -15.7430 0.0000 23.1655
v  -15.7430 0.0000 -23.1655
v  15.7430 0.0000 -23.1655
v  15.7430 0.0000 23.1655
v  -15.7430 20.0770 23.1655
v  15.7430 20.0770 23.1655
v  15.7430 20.0770 -23.1655
v  -15.7430 20.0770 -23.1655
# 8 vertices

vn 0.0000 -1.0000 -0.0000
vn 0.0000 1.0000 -0.0000
vn 0.0000 0.0000 1.0000
vn 1.0000 0.0000 -0.0000
vn 0.0000 0.0000 -1.0000
vn -1.0000 0.0000 -0.0000
# 6 vertex normals

vt 1.0000 0.0000 0.0000
vt 1.0000 1.0000 0.0000
vt 0.0000 1.0000 0.0000
vt 0.0000 0.0000 0.0000
# 4 texture coords

g Box001
usemtl wire_061135006
s 2
f 1/1/1 2/2/1 3/3/1 
f 3/3/1 4/4/1 1/1/1 
s 4
f 5/4/2 6/1/2 7/2/2 
f 7/2/2 8/3/2 5/4/2 
s 8
f 1/4/3 4/1/3 6/2/3 
f 6/2/3 5/3/3 1/4/3 
s 16
f 4/4/4 3/1/4 7/2/4 
f 7/2/4 6/3/4 4/4/4 
s 32
f 3/4/5 2/1/5 8/2/5 
f 8/2/5 7/3/5 3/4/5 
s 64
f 2/4/6 1/1/6 5/2/6 
f 5/2/6 8/3/6 2/4/6 
# 12 faces

#
# object Box002
#

v  -26.7217 19.3191 26.8552
v  -26.7217 19.3191 0.0209
v  0.1125 19.3191 0.0209
v  0.1125 19.3191 26.8552
v  26.9468 19.3191 0.0209
v  26.9468 19.3191 26.8552
v  -26.7217 19.3191 -26.8133
v  0.1125 19.3191 -26.8133
v  26.9468 19.3191 -26.8133
v  -26.7217 27.5185 26.8552
v  0.1125 37.2750 26.8552
v  0.1125 37.2750 0.0209
v  -26.7217 27.5185 0.0209
v  26.9468 27.5185 26.8552
v  26.9468 27.5185 0.0209
v  0.1125 37.2750 -26.8133
v  -26.7217 27.5185 -26.8133
v  26.9468 27.5185 -26.8133
v  0.1125 23.4188 26.8552
v  -26.7217 23.4188 26.8552
v  26.9468 23.4188 26.8552
v  26.9468 23.4188 0.0209
v  26.9468 23.4188 -26.8133
v  0.1125 23.4188 -26.8133
v  -26.7217 23.4188 -26.8133
v  -26.7217 23.4188 0.0209
# 26 vertices

vn 0.0000 -1.0000 -0.0000
vn -0.3417 0.9398 -0.0000
vn 0.0000 1.0000 -0.0000
vn -0.0000 1.0000 -0.0000
vn 0.3417 0.9398 -0.0000
vn 0.0000 0.0000 1.0000
vn 1.0000 0.0000 -0.0000
vn 0.0000 0.0000 -1.0000
vn -1.0000 0.0000 -0.0000
# 9 vertex normals

vt 1.0000 0.0000 0.0000
vt 1.0000 0.5000 0.0000
vt 0.5000 0.5000 0.0000
vt 0.5000 0.0000 0.0000
vt 0.0000 0.5000 0.0000
vt 0.0000 0.0000 0.0000
vt 1.0000 1.0000 0.0000
vt 0.5000 1.0000 0.0000
vt 0.0000 1.0000 0.0000
# 9 texture coords

g Box002
usemtl wire_135006006
s 2
f 9/5/7 10/6/7 11/7/7 
f 11/7/7 12/8/7 9/5/7 
f 12/8/7 11/7/7 13/9/7 
f 13/9/7 14/10/7 12/8/7 
f 10/6/7 15/11/7 16/12/7 
f 16/12/7 11/7/7 10/6/7 
f 11/7/7 16/12/7 17/13/7 
f 17/13/7 13/9/7 11/7/7 
s 4
f 18/10/8 19/8/9 20/7/10 
f 20/7/10 21/9/8 18/10/8 
f 19/8/9 22/5/11 23/6/11 
f 23/6/11 20/7/10 19/8/9 
f 21/9/8 20/7/10 24/12/10 
f 24/12/10 25/13/8 21/9/8 
f 20/7/10 23/6/11 26/11/11 
f 26/11/11 24/12/10 20/7/10 
s 8
f 9/10/12 12/8/12 27/7/12 
f 27/7/12 28/9/12 9/10/12 
f 12/8/12 14/5/12 29/6/12 
f 29/6/12 27/7/12 12/8/12 
f 28/9/12 27/7/12 19/12/12 
f 19/12/12 18/13/12 28/9/12 
f 27/7/12 29/6/12 22/11/12 
f 22/11/12 19/12/12 27/7/12 
s 16
f 14/10/13 13/8/13 30/7/13 
f 30/7/13 29/9/13 14/10/13 
f 13/8/13 17/5/13 31/6/13 
f 31/6/13 30/7/13 13/8/13 
f 29/9/13 30/7/13 23/12/13 
f 23/12/13 22/13/13 29/9/13 
f 30/7/13 31/6/13 26/11/13 
f 26/11/13 23/12/13 30/7/13 
s 32
f 17/10/14 16/8/14 32/7/14 
f 32/7/14 31/9/14 17/10/14 
f 16/8/14 15/5/14 33/6/14 
f 33/6/14 32/7/14 16/8/14 
f 31/9/14 32/7/14 24/12/14 
f 24/12/14 26/13/14 31/9/14 
f 32/7/14 33/6/14 25/11/14 
f 25/11/14 24/12/14 32/7/14 
s 64
f 15/10/15 10/8/15 34/7/15 
f 34/7/15 33/9/15 15/10/15 
f 10/8/15 9/5/15 28/6/15 
f 28/6/15 34/7/15 10/8/15 
f 33/9/15 34/7/15 21/12/15 
f 21/12/15 25/13/15 33/9/15 
f 34/7/15 28/6/15 18/11/15 
f 18/11/15 21/12/15 34/7/15 
# 48 faces

